<?xml version="1.0" encoding="utf-8"?>
<!-- Generator: Adobe Illustrator 25.4.1, SVG Export Plug-In . SVG Version: 6.00 Build 0)  -->
<svg version="1.1" id="katman_1" xmlns="http://www.w3.org/2000/svg" xmlns:xlink="http://www.w3.org/1999/xlink" x="0px" y="0px"
	 viewBox="0 0 1920 457" style="enable-background:new 0 0 1920 457;" xml:space="preserve">
<style type="text/css">
	.st0{fill:#0B2554;}
</style>
<g>
	<path id="XMLID_00000150801152415342498420000015036998641617399740_" class="st0" d="M1914,426.2h-53L1743.8,118l-115.5,303.6
		c-1,2.7-3.6,4.5-6.4,4.5h-48.4L1717.1,48v0c9.6-25.1,43.7-25.1,53.3,0l0,0L1914,426.2z"/>
	<g>
		<rect x="6" y="30.5" class="st0" width="260.4" height="47.8"/>
		<rect x="6" y="205.2" class="st0" width="260.4" height="47.8"/>
		<rect x="6" y="380" class="st0" width="260.4" height="47.8"/>
	</g>
	<polygon class="st0" points="856.4,380 856.4,427.8 601.3,427.8 601.3,29.2 649.1,29.2 649.1,380 	"/>
	<polygon class="st0" points="1372,29.2 1372,77 1244.4,77 1244.4,427.8 1196.6,427.8 1196.6,77 1074.3,77 1074.3,29.2 	"/>
</g>
</svg>
